<?xml version="1.0" encoding="UTF-8" standalone="no"?>
<!-- Created with Inkscape (http://www.inkscape.org/) -->

<svg
   width="210mm"
   height="210mm"
   viewBox="0 0 210 210"
   version="1.1"
   id="svg1"
   inkscape:version="1.3.2 (091e20e, 2023-11-25, custom)"
   sodipodi:docname="pond_occurence.svg"
   inkscape:export-filename="water_proportion.png"
   inkscape:export-xdpi="96"
   inkscape:export-ydpi="96"
   xmlns:inkscape="http://www.inkscape.org/namespaces/inkscape"
   xmlns:sodipodi="http://sodipodi.sourceforge.net/DTD/sodipodi-0.dtd"
   xmlns="http://www.w3.org/2000/svg"
   xmlns:svg="http://www.w3.org/2000/svg">
  <sodipodi:namedview
     id="namedview1"
     pagecolor="#ffffff"
     bordercolor="#000000"
     borderopacity="0.25"
     inkscape:showpageshadow="2"
     inkscape:pageopacity="0.0"
     inkscape:pagecheckerboard="0"
     inkscape:deskcolor="#d1d1d1"
     inkscape:document-units="mm"
     inkscape:zoom="0.2692943"
     inkscape:cx="178.24365"
     inkscape:cy="577.43517"
     inkscape:window-width="2132"
     inkscape:window-height="1099"
     inkscape:window-x="3095"
     inkscape:window-y="325"
     inkscape:window-maximized="0"
     inkscape:current-layer="layer1"
     inkscape:export-bgcolor="#ffffffff"
     showgrid="false"
     showguides="true" />
  <defs
     id="defs1">
    <rect
       x="145.75132"
       y="378.76776"
       width="134.61109"
       height="43.632561"
       id="rect22" />
  </defs>
  <g
     inkscape:label="Layer 1"
     inkscape:groupmode="layer"
     id="layer1">
    <rect
       style="fill:none;stroke:#666666;stroke-width:4.5;stroke-dasharray:none;stroke-opacity:1"
       id="rect1"
       width="204.94012"
       height="204.94012"
       x="2.5299194"
       y="2.5299194" />
    <rect
       style="fill:none;stroke:#666666;stroke-width:2.176;stroke-linejoin:round"
       id="rect2"
       width="79.894737"
       height="74.336838"
       x="16.18243"
       y="24.186367" />
    <path
       style="fill:#666666;fill-opacity:1;stroke:#666666;stroke-width:1.74217;stroke-linejoin:round;stroke-dasharray:none;stroke-opacity:1"
       d="m 154.43288,47.292483 -18.61681,11.400059 5.79867,17.400089 21.36356,15.000078 12.20775,-7.200036 10.0714,-10.500055 -2.13636,-11.100058 -8.85063,-9.900051 z"
       id="path3" />
    <rect
       style="fill:none;stroke:#666666;stroke-width:2.176;stroke-linejoin:round"
       id="rect3"
       width="79.894737"
       height="74.336838"
       x="112.05611"
       y="24.533735" />
    <path
       style="fill:#666666;fill-opacity:1;stroke:#666666;stroke-width:1.74217;stroke-linejoin:round;stroke-dasharray:none;stroke-opacity:1"
       d="m 55.095451,138.05792 -18.616815,11.40006 5.798673,17.40009 21.363561,15.00008 12.207753,-7.20004 10.071396,-10.50006 -2.136357,-11.10006 -8.850627,-9.90004 z"
       id="path4" />
    <rect
       style="fill:none;stroke:#666666;stroke-width:2.176;stroke-linejoin:round"
       id="rect4"
       width="79.894737"
       height="74.336838"
       x="15.343809"
       y="113.37576" />
    <path
       style="fill:#666666;fill-opacity:1;stroke:#666666;stroke-width:1.74217;stroke-linejoin:round;stroke-dasharray:none;stroke-opacity:1"
       d="m 151.15486,136.65117 -18.61682,11.40006 5.79868,17.40009 21.36356,15.00008 12.20775,-7.20004 10.0714,-10.50005 -2.13636,-11.10006 -8.85063,-9.90005 z"
       id="path5" />
    <rect
       style="fill:none;stroke:#666666;stroke-width:2.176;stroke-linejoin:round"
       id="rect5"
       width="79.894737"
       height="74.336838"
       x="110.87012"
       y="113.72314" />
    <g
       id="g23"
       transform="matrix(1.5,0,0,1.5,-9.0980975,-13.86983)">
      <rect
         style="fill:#666666;stroke:#666666;stroke-width:2.176;stroke-linejoin:round"
         id="rect8"
         width="0.17368321"
         height="17.021051"
         x="-6.0535116"
         y="36.55291"
         transform="rotate(-45)" />
      <rect
         style="fill:#666666;stroke:#666666;stroke-width:2.176;stroke-linejoin:round"
         id="rect9"
         width="0.17368321"
         height="17.021051"
         x="-45.150276"
         y="-14.477198"
         transform="rotate(-135)" />
    </g>
    <text
       xml:space="preserve"
       transform="scale(0.26458333)"
       id="text22"
       style="white-space:pre;shape-inside:url(#rect22);fill:#666666;stroke:#666666;stroke-width:8.22425;stroke-linejoin:round" />
    <g
       id="g36">
      <path
         d="m 117.66769,41.564192 -0.18449,0.184485 8.93511,8.934339 0.18449,-0.184485 z"
         style="fill:#666666;stroke:#666666;stroke-width:3.264;stroke-linejoin:round"
         id="path23" />
      <g
         id="g35"
         transform="rotate(-10,146.60559,49.068814)">
        <path
           d="m 135.69099,37.972107 -0.18449,-0.184485 -8.93511,8.935113 0.18448,0.18371 z"
           style="fill:#666666;stroke:#666666;stroke-width:3.264;stroke-linejoin:round"
           id="path24" />
        <path
           d="m 135.69099,37.603137 0.1837,0.184485 8.93512,-8.934339 -0.18449,-0.184485 z"
           style="fill:#666666;stroke:#666666;stroke-width:3.264;stroke-linejoin:round"
           id="path26" />
      </g>
    </g>
    <g
       id="g39"
       transform="translate(-1.511673,88.425562)">
      <path
         d="m 117.66769,41.564192 -0.18449,0.184485 8.93511,8.934339 0.18449,-0.184485 z"
         style="fill:#666666;stroke:#666666;stroke-width:3.264;stroke-linejoin:round"
         id="path36" />
      <g
         id="g38"
         transform="rotate(-10,146.60559,49.068814)">
        <path
           d="m 135.69099,37.972107 -0.18449,-0.184485 -8.93511,8.935113 0.18448,0.18371 z"
           style="fill:#666666;stroke:#666666;stroke-width:3.264;stroke-linejoin:round"
           id="path37" />
        <path
           d="m 135.69099,37.603137 0.1837,0.184485 8.93512,-8.934339 -0.18449,-0.184485 z"
           style="fill:#666666;stroke:#666666;stroke-width:3.264;stroke-linejoin:round"
           id="path38" />
      </g>
    </g>
    <g
       id="g42"
       transform="translate(-96.81478,88.425562)">
      <path
         d="m 117.66769,41.564192 -0.18449,0.184485 8.93511,8.934339 0.18449,-0.184485 z"
         style="fill:#666666;stroke:#666666;stroke-width:3.264;stroke-linejoin:round"
         id="path39" />
      <g
         id="g41"
         transform="rotate(-10,146.60559,49.068814)">
        <path
           d="m 135.69099,37.972107 -0.18449,-0.184485 -8.93511,8.935113 0.18448,0.18371 z"
           style="fill:#666666;stroke:#666666;stroke-width:3.264;stroke-linejoin:round"
           id="path40" />
        <path
           d="m 135.69099,37.603137 0.1837,0.184485 8.93512,-8.934339 -0.18449,-0.184485 z"
           style="fill:#666666;stroke:#666666;stroke-width:3.264;stroke-linejoin:round"
           id="path41" />
      </g>
    </g>
  </g>
</svg>
