<?xml version="1.0" encoding="UTF-8" standalone="no"?>
<!-- Created with Inkscape (http://www.inkscape.org/) -->

<svg
   width="210mm"
   height="297mm"
   viewBox="0 0 210 297"
   version="1.1"
   id="svg1"
   inkscape:version="1.3.2 (091e20e, 2023-11-25, custom)"
   sodipodi:docname="thermometer.svg"
   inkscape:export-filename="thermometer.png"
   inkscape:export-xdpi="96"
   inkscape:export-ydpi="96"
   xmlns:inkscape="http://www.inkscape.org/namespaces/inkscape"
   xmlns:sodipodi="http://sodipodi.sourceforge.net/DTD/sodipodi-0.dtd"
   xmlns="http://www.w3.org/2000/svg"
   xmlns:svg="http://www.w3.org/2000/svg">
  <sodipodi:namedview
     id="namedview1"
     pagecolor="#ffffff"
     bordercolor="#000000"
     borderopacity="0.25"
     inkscape:showpageshadow="2"
     inkscape:pageopacity="0.0"
     inkscape:pagecheckerboard="0"
     inkscape:deskcolor="#d1d1d1"
     inkscape:document-units="mm"
     inkscape:zoom="1.0544998"
     inkscape:cx="52.15743"
     inkscape:cy="584.63738"
     inkscape:window-width="2510"
     inkscape:window-height="1307"
     inkscape:window-x="2602"
     inkscape:window-y="101"
     inkscape:window-maximized="0"
     inkscape:current-layer="layer1"
     inkscape:export-bgcolor="#ffffff00" />
  <defs
     id="defs1" />
  <g
     inkscape:label="Layer 1"
     inkscape:groupmode="layer"
     id="layer1">
    <path
       id="rect1"
       style="fill:#808080;fill-opacity:1;stroke:#808080;stroke-width:0.753401;stroke-opacity:1"
       d="M 103.05549,13.735261 A 47.004143,41.149303 0 0 0 64.598406,31.496967 h -0.0047 V 214.87905 a 47.004143,41.149303 0 0 0 -8.187614,23.09575 47.004143,41.149303 0 0 0 47.004358,41.14943 47.004143,41.149303 0 0 0 47.00385,-41.14943 47.004143,41.149303 0 0 0 -8.54263,-23.64507 V 31.714008 31.496967 h -0.16846 A 47.004143,41.149303 0 0 0 103.05549,13.735261 Z" />
    <g
       id="g1"
       transform="translate(0.52916667)"
       style="fill:#1a1a1a">
      <path
         d="m 131.4016,83.106435 v 15.5205 H 74.445387 V 219.33481 a 34.859528,30.517422 0 0 0 -6.072498,17.12867 34.859528,30.517422 0 0 0 34.859891,30.51752 34.859528,30.517422 0 0 0 34.85937,-30.51752 34.859528,30.517422 0 0 0 -6.33553,-17.53588 V 83.494525 83.333812 h -0.12506 a 34.859528,30.517422 0 0 0 -0.22996,-0.227377 z"
         style="fill:#1a1a1a;fill-opacity:1;stroke:#000000;stroke-width:0.558742"
         id="path18" />
    </g>
    <path
       d="M 103.1439,24.386791 A 34.859528,30.517422 0 0 0 74.623157,37.55963 h -0.004 v 94.42215 h 0.35553 v -15.29313 h 0.004 a 34.859528,30.517422 0 0 1 28.520723,-13.17284 34.859528,30.517422 0 0 1 28.43186,12.94547 V 37.720344 37.55963 h -0.12506 A 34.859528,30.517422 0 0 0 103.1439,24.386791 Z"
       style="fill:#ffffff;fill-opacity:1;stroke:#000000;stroke-width:0.558742"
       id="path17" />
    <rect
       style="fill:#ffffff;fill-opacity:1;stroke:none;stroke-width:1.23423;stroke-dasharray:none;stroke-opacity:1"
       id="rect18"
       width="28.416639"
       height="2.483871"
       x="76.613762"
       y="192.18622" />
    <rect
       style="fill:#ffffff;fill-opacity:1;stroke:none;stroke-width:1.23423;stroke-dasharray:none;stroke-opacity:1"
       id="rect19"
       width="28.416639"
       height="2.483871"
       x="76.613762"
       y="173.29106" />
    <rect
       style="fill:#ffffff;fill-opacity:1;stroke:none;stroke-width:1.85501;stroke-dasharray:none;stroke-opacity:1"
       id="rect20"
       width="4.88411"
       height="17.387096"
       x="76.613785"
       y="174.97652" />
    <rect
       style="fill:#ffffff;fill-opacity:1;stroke:none;stroke-width:1.23423;stroke-dasharray:none;stroke-opacity:1"
       id="rect21"
       width="28.416639"
       height="2.483871"
       x="76.613762"
       y="154.22198" />
    <rect
       style="fill:#ffffff;fill-opacity:1;stroke:none;stroke-width:1.85501;stroke-dasharray:none;stroke-opacity:1"
       id="rect22"
       width="4.88411"
       height="17.387096"
       x="76.613785"
       y="155.90744" />
    <rect
       style="fill:#ffffff;fill-opacity:1;stroke:none;stroke-width:1.23423;stroke-dasharray:none;stroke-opacity:1"
       id="rect23"
       width="28.416639"
       height="2.483871"
       x="76.613762"
       y="135.27837" />
    <rect
       style="fill:#ffffff;fill-opacity:1;stroke:none;stroke-width:1.85501;stroke-dasharray:none;stroke-opacity:1"
       id="rect24"
       width="4.88411"
       height="17.387096"
       x="76.613785"
       y="136.96382" />
    <rect
       style="fill:#ffffff;fill-opacity:1;stroke:none;stroke-width:1.23423;stroke-dasharray:none;stroke-opacity:1"
       id="rect25"
       width="28.416639"
       height="2.483871"
       x="76.613762"
       y="116.20915" />
    <rect
       style="fill:#ffffff;fill-opacity:1;stroke:none;stroke-width:1.85501;stroke-dasharray:none;stroke-opacity:1"
       id="rect26"
       width="4.88411"
       height="17.387096"
       x="76.613785"
       y="117.89462" />
    <rect
       style="fill:#000000;fill-opacity:1;stroke:none;stroke-width:1.23423;stroke-dasharray:none;stroke-opacity:1"
       id="rect27"
       width="28.416639"
       height="2.483871"
       x="76.613762"
       y="97.140076" />
    <rect
       style="fill:#000000;fill-opacity:1;stroke:none;stroke-width:1.85501;stroke-dasharray:none;stroke-opacity:1"
       id="rect28"
       width="4.88411"
       height="17.387096"
       x="76.613785"
       y="98.825569" />
    <rect
       style="fill:#000000;fill-opacity:1;stroke:none;stroke-width:1.23423;stroke-dasharray:none;stroke-opacity:1"
       id="rect29"
       width="28.416639"
       height="2.483871"
       x="76.613762"
       y="78.070992" />
    <rect
       style="fill:#000000;fill-opacity:1;stroke:none;stroke-width:1.85501;stroke-dasharray:none;stroke-opacity:1"
       id="rect30"
       width="4.88411"
       height="17.387096"
       x="76.613785"
       y="79.756447" />
    <rect
       style="fill:#000000;fill-opacity:1;stroke:none;stroke-width:1.23423;stroke-dasharray:none;stroke-opacity:1"
       id="rect31"
       width="28.416639"
       height="2.483871"
       x="76.613762"
       y="59.378281" />
    <rect
       style="fill:#000000;fill-opacity:1;stroke:none;stroke-width:1.85501;stroke-dasharray:none;stroke-opacity:1"
       id="rect32"
       width="4.88411"
       height="17.387096"
       x="76.613785"
       y="61.063736" />
    <rect
       style="fill:#000000;fill-opacity:1;stroke:none;stroke-width:1.23423;stroke-dasharray:none;stroke-opacity:1"
       id="rect33"
       width="28.416639"
       height="2.483871"
       x="76.613762"
       y="40.811024" />
    <rect
       style="fill:#000000;fill-opacity:1;stroke:none;stroke-width:1.85501;stroke-dasharray:none;stroke-opacity:1"
       id="rect34"
       width="4.88411"
       height="17.387096"
       x="76.613785"
       y="42.496479" />
    <rect
       style="fill:#ffffff;fill-opacity:1;stroke:none;stroke-width:1.23423;stroke-dasharray:none;stroke-opacity:1"
       id="rect35"
       width="28.416639"
       height="2.483871"
       x="76.613762"
       y="211.96848" />
    <rect
       style="fill:#ffffff;fill-opacity:1;stroke:none;stroke-width:1.85501;stroke-dasharray:none;stroke-opacity:1"
       id="rect36"
       width="4.88411"
       height="17.387096"
       x="76.613785"
       y="194.75877" />
  </g>
</svg>
