<?xml version="1.0" encoding="UTF-8" standalone="no"?>
<!-- Created with Inkscape (http://www.inkscape.org/) -->

<svg
   width="210mm"
   height="210mm"
   viewBox="0 0 210 210"
   version="1.1"
   id="svg1"
   inkscape:version="1.3.2 (091e20e, 2023-11-25, custom)"
   sodipodi:docname="veg_invasion.svg"
   inkscape:export-filename="veg_invasion.png"
   inkscape:export-xdpi="96"
   inkscape:export-ydpi="96"
   xmlns:inkscape="http://www.inkscape.org/namespaces/inkscape"
   xmlns:sodipodi="http://sodipodi.sourceforge.net/DTD/sodipodi-0.dtd"
   xmlns="http://www.w3.org/2000/svg"
   xmlns:svg="http://www.w3.org/2000/svg">
  <sodipodi:namedview
     id="namedview1"
     pagecolor="#ffffff"
     bordercolor="#000000"
     borderopacity="0.25"
     inkscape:showpageshadow="2"
     inkscape:pageopacity="0.0"
     inkscape:pagecheckerboard="0"
     inkscape:deskcolor="#d1d1d1"
     inkscape:document-units="mm"
     inkscape:zoom="1"
     inkscape:cx="150"
     inkscape:cy="439.5"
     inkscape:window-width="2132"
     inkscape:window-height="1099"
     inkscape:window-x="3354"
     inkscape:window-y="396"
     inkscape:window-maximized="0"
     inkscape:current-layer="layer1"
     inkscape:export-bgcolor="#ffffffff"
     showgrid="false"
     showguides="true" />
  <defs
     id="defs1">
    <rect
       x="145.75132"
       y="378.76776"
       width="134.61109"
       height="43.632561"
       id="rect22" />
  </defs>
  <g
     inkscape:label="Layer 1"
     inkscape:groupmode="layer"
     id="layer1">
    <path
       style="fill:#ffffff;fill-opacity:1;stroke:#333333;stroke-width:4.5;stroke-linejoin:round;stroke-dasharray:4.5, 4.5;stroke-dashoffset:0;stroke-opacity:1"
       d="m 66.603566,62.487615 -26.192415,2.245064 -10.431568,8.333706 -3.038814,21.60048 -4.864306,23.573175 v 17.96051 l 7.483546,10.10279 3.367595,8.98025 56.500778,23.94735 60.616728,5.61266 26.56659,-6.73519 9.35443,-23.19899 -0.74835,-18.70887 -5.23848,-10.85114 -19.8314,-0.37418 -11.5995,3.3676 -19.45722,0.37417 -20.60634,-8.3791 c -6.64888,1.22909 -13.324262,-4.65138 -21.309309,-4.99269 L 83.815723,90.176738 c 2.343379,-7.391273 3.852665,-16.19814 0.184808,-24.257329 z"
       id="path43"
       sodipodi:nodetypes="cccccccccccccccccccccc" />
    <path
       style="fill:#333333;fill-opacity:1;stroke:#333333;stroke-width:1.22993;stroke-linejoin:round;stroke-dasharray:none;stroke-dashoffset:0;stroke-opacity:1"
       d="m 77.795988,120.10597 -33.518089,13.43393 -22.41112,31.05404 -0.423705,14.99594 18.643069,12.99648 38.13355,-1.99946 22.880127,-21.99404 14.40602,-24.99324 -10.16895,-18.495 z"
       id="path42"
       sodipodi:nodetypes="cccccccccc" />
    <rect
       style="fill:none;stroke:#333333;stroke-width:4.5;stroke-dasharray:none;stroke-opacity:1"
       id="rect1"
       width="204.94012"
       height="204.94012"
       x="2.5299194"
       y="2.5299194" />
    <text
       xml:space="preserve"
       transform="scale(0.26458333)"
       id="text22"
       style="white-space:pre;shape-inside:url(#rect22);display:inline;fill:#666666;stroke:#666666;stroke-width:8.22425;stroke-linejoin:round" />
    <text
       xml:space="preserve"
       style="font-size:3.175px;fill:#666666;fill-opacity:1;stroke:#666666;stroke-width:5.163;stroke-linejoin:round;stroke-dasharray:none;stroke-opacity:1"
       x="119.59167"
       y="48.683334"
       id="text9"><tspan
         sodipodi:role="line"
         id="tspan9"
         style="stroke-width:5.163"></tspan></text>
    <text
       xml:space="preserve"
       style="font-size:47.2832px;fill:#333333;fill-opacity:1;stroke:#333333;stroke-width:1;stroke-linejoin:round;stroke-dasharray:none;stroke-opacity:1"
       x="12.706213"
       y="51.026943"
       id="text10"><tspan
         sodipodi:role="line"
         id="tspan10"
         style="stroke-width:1;stroke-dasharray:none;stroke:#333333;fill:#333333"
         x="12.706213"
         y="51.026943">2021</tspan></text>
    <g
       id="g17"
       style="fill:none;stroke:#333333;stroke-opacity:1"
       transform="matrix(0.76197453,0,0,0.76197453,19.153061,131.80252)">
      <path
         style="fill:none;fill-opacity:1;stroke:#333333;stroke-width:4.50001;stroke-linejoin:round;stroke-dasharray:none;stroke-opacity:1"
         d="m 163.5155,56.500778 c 1.71613,-12.23606 -1.97735,-22.308276 -8.98026,-31.056719"
         id="path15"
         sodipodi:nodetypes="cc" />
      <path
         style="fill:none;fill-opacity:1;stroke:#333333;stroke-width:4.50001;stroke-linejoin:round;stroke-dasharray:none;stroke-opacity:1"
         d="m 164.35739,56.033055 c -1.13437,-15.241129 1.14587,-28.53105 5.23848,-40.785328"
         id="path16"
         sodipodi:nodetypes="cc" />
      <path
         style="fill:none;fill-opacity:1;stroke:#333333;stroke-width:4.50001;stroke-linejoin:round;stroke-dasharray:none;stroke-opacity:1"
         d="m 163.98322,56.407233 c 1.09431,-9.765392 4.1823,-18.401033 12.72203,-23.94735"
         id="path17"
         sodipodi:nodetypes="cc" />
    </g>
    <g
       id="g23"
       style="fill:none;stroke:#333333;stroke-opacity:1"
       transform="matrix(0.76197453,0,0,0.76197453,41.229523,119.45467)">
      <path
         style="fill:none;fill-opacity:1;stroke:#333333;stroke-width:4.50001;stroke-linejoin:round;stroke-dasharray:none;stroke-opacity:1"
         d="m 163.5155,56.500778 c 1.71613,-12.23606 -1.97735,-22.308276 -8.98026,-31.056719"
         id="path21"
         sodipodi:nodetypes="cc" />
      <path
         style="fill:none;fill-opacity:1;stroke:#333333;stroke-width:4.50001;stroke-linejoin:round;stroke-dasharray:none;stroke-opacity:1"
         d="m 164.35739,56.033055 c -1.13437,-15.241129 1.14587,-28.53105 5.23848,-40.785328"
         id="path22"
         sodipodi:nodetypes="cc" />
      <path
         style="fill:none;fill-opacity:1;stroke:#333333;stroke-width:4.50001;stroke-linejoin:round;stroke-dasharray:none;stroke-opacity:1"
         d="m 163.98322,56.407233 c 1.09431,-9.765392 4.1823,-18.401033 12.72203,-23.94735"
         id="path23"
         sodipodi:nodetypes="cc" />
    </g>
    <g
       id="g26"
       style="fill:none;stroke:#333333;stroke-opacity:1"
       transform="matrix(0.56726706,0,0,0.56726706,-45.445662,62.49937)">
      <path
         style="fill:none;fill-opacity:1;stroke:#333333;stroke-width:4.50001;stroke-linejoin:round;stroke-dasharray:none;stroke-opacity:1"
         d="m 163.5155,56.500778 c 1.71613,-12.23606 -1.97735,-22.308276 -8.98026,-31.056719"
         id="path24"
         sodipodi:nodetypes="cc" />
      <path
         style="fill:none;fill-opacity:1;stroke:#333333;stroke-width:4.50001;stroke-linejoin:round;stroke-dasharray:none;stroke-opacity:1"
         d="m 164.35739,56.033055 c -1.13437,-15.241129 1.14587,-28.53105 5.23848,-40.785328"
         id="path25"
         sodipodi:nodetypes="cc" />
      <path
         style="fill:none;fill-opacity:1;stroke:#333333;stroke-width:4.50001;stroke-linejoin:round;stroke-dasharray:none;stroke-opacity:1"
         d="m 163.98322,56.407233 c 1.09431,-9.765392 4.1823,-18.401033 12.72203,-23.94735"
         id="path26"
         sodipodi:nodetypes="cc" />
    </g>
    <g
       id="g29"
       style="fill:none;stroke:#333333;stroke-opacity:1"
       transform="matrix(0.77553934,0,0,0.77553934,-88.218177,87.508845)">
      <path
         style="fill:none;fill-opacity:1;stroke:#333333;stroke-width:4.50001;stroke-linejoin:round;stroke-dasharray:none;stroke-opacity:1"
         d="m 163.5155,56.500778 c 1.71613,-12.23606 -1.97735,-22.308276 -8.98026,-31.056719"
         id="path27"
         sodipodi:nodetypes="cc" />
      <path
         style="fill:none;fill-opacity:1;stroke:#333333;stroke-width:4.50001;stroke-linejoin:round;stroke-dasharray:none;stroke-opacity:1"
         d="m 164.35739,56.033055 c -1.13437,-15.241129 1.14587,-28.53105 5.23848,-40.785328"
         id="path28"
         sodipodi:nodetypes="cc" />
      <path
         style="fill:none;fill-opacity:1;stroke:#333333;stroke-width:4.50001;stroke-linejoin:round;stroke-dasharray:none;stroke-opacity:1"
         d="m 163.98322,56.407233 c 1.09431,-9.765392 4.1823,-18.401033 12.72203,-23.94735"
         id="path29"
         sodipodi:nodetypes="cc" />
    </g>
    <g
       id="g32"
       style="fill:none;stroke:#333333;stroke-opacity:1"
       transform="matrix(0.56726706,0,0,0.56726706,-25.561079,86.363717)">
      <path
         style="fill:none;fill-opacity:1;stroke:#333333;stroke-width:4.50001;stroke-linejoin:round;stroke-dasharray:none;stroke-opacity:1"
         d="m 163.5155,56.500778 c 1.71613,-12.23606 -1.97735,-22.308276 -8.98026,-31.056719"
         id="path30"
         sodipodi:nodetypes="cc" />
      <path
         style="fill:none;fill-opacity:1;stroke:#333333;stroke-width:4.50001;stroke-linejoin:round;stroke-dasharray:none;stroke-opacity:1"
         d="m 164.35739,56.033055 c -1.13437,-15.241129 1.14587,-28.53105 5.23848,-40.785328"
         id="path31"
         sodipodi:nodetypes="cc" />
      <path
         style="fill:none;fill-opacity:1;stroke:#333333;stroke-width:4.50001;stroke-linejoin:round;stroke-dasharray:none;stroke-opacity:1"
         d="m 163.98322,56.407233 c 1.09431,-9.765392 4.1823,-18.401033 12.72203,-23.94735"
         id="path32"
         sodipodi:nodetypes="cc" />
    </g>
    <g
       id="g35"
       style="fill:none;stroke:#333333;stroke-opacity:1"
       transform="matrix(0.40287696,0,0,0.40287696,2.1656778,65.992507)">
      <path
         style="fill:none;fill-opacity:1;stroke:#333333;stroke-width:4.50001;stroke-linejoin:round;stroke-dasharray:none;stroke-opacity:1"
         d="m 163.5155,56.500778 c 1.71613,-12.23606 -1.97735,-22.308276 -8.98026,-31.056719"
         id="path33"
         sodipodi:nodetypes="cc" />
      <path
         style="fill:none;fill-opacity:1;stroke:#333333;stroke-width:4.50001;stroke-linejoin:round;stroke-dasharray:none;stroke-opacity:1"
         d="m 164.35739,56.033055 c -1.13437,-15.241129 1.14587,-28.53105 5.23848,-40.785328"
         id="path34"
         sodipodi:nodetypes="cc" />
      <path
         style="fill:none;fill-opacity:1;stroke:#333333;stroke-width:4.50001;stroke-linejoin:round;stroke-dasharray:none;stroke-opacity:1"
         d="m 163.98322,56.407233 c 1.09431,-9.765392 4.1823,-18.401033 12.72203,-23.94735"
         id="path35"
         sodipodi:nodetypes="cc" />
    </g>
    <g
       id="g38"
       style="fill:none;stroke:#333333;stroke-opacity:1"
       transform="matrix(0.45314634,0,0,0.45314634,46.878204,145.2716)">
      <path
         style="fill:none;fill-opacity:1;stroke:#333333;stroke-width:4.50001;stroke-linejoin:round;stroke-dasharray:none;stroke-opacity:1"
         d="m 163.5155,56.500778 c 1.71613,-12.23606 -1.97735,-22.308276 -8.98026,-31.056719"
         id="path36"
         sodipodi:nodetypes="cc" />
      <path
         style="fill:none;fill-opacity:1;stroke:#333333;stroke-width:4.50001;stroke-linejoin:round;stroke-dasharray:none;stroke-opacity:1"
         d="m 164.35739,56.033055 c -1.13437,-15.241129 1.14587,-28.53105 5.23848,-40.785328"
         id="path37"
         sodipodi:nodetypes="cc" />
      <path
         style="fill:none;fill-opacity:1;stroke:#333333;stroke-width:4.50001;stroke-linejoin:round;stroke-dasharray:none;stroke-opacity:1"
         d="m 163.98322,56.407233 c 1.09431,-9.765392 4.1823,-18.401033 12.72203,-23.94735"
         id="path38"
         sodipodi:nodetypes="cc" />
    </g>
    <g
       id="g41"
       style="fill:none;stroke:#333333;stroke-opacity:1"
       transform="matrix(0.37387137,0,0,0.37387137,70.589227,128.83751)">
      <path
         style="fill:none;fill-opacity:1;stroke:#333333;stroke-width:4.50001;stroke-linejoin:round;stroke-dasharray:none;stroke-opacity:1"
         d="m 163.5155,56.500778 c 1.71613,-12.23606 -1.97735,-22.308276 -8.98026,-31.056719"
         id="path39"
         sodipodi:nodetypes="cc" />
      <path
         style="fill:none;fill-opacity:1;stroke:#333333;stroke-width:4.50001;stroke-linejoin:round;stroke-dasharray:none;stroke-opacity:1"
         d="m 164.35739,56.033055 c -1.13437,-15.241129 1.14587,-28.53105 5.23848,-40.785328"
         id="path40"
         sodipodi:nodetypes="cc" />
      <path
         style="fill:none;fill-opacity:1;stroke:#333333;stroke-width:4.50001;stroke-linejoin:round;stroke-dasharray:none;stroke-opacity:1"
         d="m 163.98322,56.407233 c 1.09431,-9.765392 4.1823,-18.401033 12.72203,-23.94735"
         id="path41"
         sodipodi:nodetypes="cc" />
    </g>
  </g>
</svg>
